# Blender v2.79 (sub 0) OBJ File: ''
# www.blender.org
mtllib coin mario blank.mtl
o coin_mario_blank_Cylinder.004
v -1.701308 1.750157 -1.776442
v -1.701308 1.749159 -1.510797
v -1.408923 1.720362 -1.510996
v -1.408923 1.721360 -1.776640
v -1.438052 1.574925 -1.777650
v -1.701308 1.600853 -1.777471
v -1.993692 1.721360 -1.776640
v -1.993692 1.720362 -1.510996
v -1.701308 1.629455 -1.511622
v -1.432277 1.602959 -1.511805
v -1.127775 1.635078 -1.511584
v -1.127775 1.636076 -1.777228
v -1.964564 1.574925 -1.777650
v -1.184911 1.498138 -1.778179
v -1.438052 1.574507 -1.717003
v -1.701308 1.600435 -1.716824
v -2.274840 1.636077 -1.777228
v -2.274840 1.635079 -1.511584
v -1.970338 1.602959 -1.511805
v -1.173584 1.524487 -1.512346
v -1.701308 1.629910 -1.583203
v -1.432277 1.603414 -1.583386
v -0.868667 1.496585 -1.512538
v -0.868667 1.497583 -1.778182
v -2.217703 1.498138 -1.778179
v -1.964564 1.574507 -1.717003
v -0.951617 1.373442 -1.779038
v -1.184911 1.497720 -1.717531
v -1.885859 -0.404644 -1.730671
v -1.535332 -0.410024 -1.730708
v -1.438052 -1.072391 -1.735245
v -1.701310 -1.098319 -1.735424
v -1.964566 -1.072390 -1.735245
v -2.217706 -0.995603 -1.734716
v -2.451001 -0.870907 -1.733857
v -2.655485 -0.703095 -1.732700
v -2.823301 -0.498615 -1.731291
v -2.948000 -0.265325 -1.729683
v -3.024790 -0.012191 -1.727938
v -3.050718 0.251059 -1.726124
v -3.024788 0.514310 -1.724309
v -2.948000 0.767444 -1.722565
v -2.823300 1.000733 -1.720957
v -2.655484 1.205213 -1.719548
v -2.450999 1.373025 -1.718391
v -2.217703 1.497721 -1.717532
v -1.527359 0.794194 -1.722381
v -1.857290 0.799174 -1.722346
v -0.951617 1.373024 -1.718391
v -0.747133 1.205212 -1.719548
v -0.579317 1.000732 -1.720957
v -0.454617 0.767442 -1.722565
v -0.377828 0.514308 -1.724310
v -0.351901 0.251058 -1.726124
v -0.377828 -0.012192 -1.727938
v -0.454617 -0.265326 -1.729683
v -0.579317 -0.498615 -1.731291
v -0.747133 -0.703095 -1.732700
v -0.951617 -0.870908 -1.733857
v -1.184914 -0.995603 -1.734716
v -2.533950 1.497585 -1.778182
v -2.533950 1.496586 -1.512538
v -2.229031 1.524488 -1.512346
v -1.970338 1.603414 -1.583386
v -0.935171 1.397056 -1.513224
v -1.173584 1.524942 -1.583927
v -1.548075 -0.371770 -1.596999
v -1.432277 -1.101548 -1.602029
v -1.173584 -1.023077 -1.601488
v -0.935171 -0.895645 -1.600610
v -0.726202 -0.724152 -1.599428
v -0.554702 -0.515186 -1.597987
v -0.427268 -0.276779 -1.596344
v -0.348796 -0.018092 -1.594561
v -0.322299 0.250933 -1.592707
v -0.348796 0.519958 -1.590853
v -0.427268 0.778645 -1.589070
v -0.554702 1.017051 -1.587427
v -0.726202 1.226017 -1.585986
v -0.935171 1.397511 -1.584805
v -1.525776 0.793061 -1.588971
v -1.876960 -0.366721 -1.596964
v -1.855706 0.798040 -1.588936
v -2.229031 1.524943 -1.583926
v -2.467444 1.397512 -1.584805
v -2.676415 1.226018 -1.585986
v -2.847913 1.017053 -1.587427
v -2.975348 0.778646 -1.589070
v -3.053822 0.519959 -1.590852
v -3.080318 0.250934 -1.592707
v -3.053822 -0.018091 -1.594561
v -2.975348 -0.276778 -1.596344
v -2.847913 -0.515185 -1.597987
v -2.676416 -0.724151 -1.599428
v -2.467447 -0.895645 -1.600610
v -2.229034 -1.023076 -1.601488
v -1.970340 -1.101548 -1.602029
v -1.701310 -1.128045 -1.602211
v -0.641557 1.310205 -1.513823
v -0.641557 1.311203 -1.779467
v -2.450999 1.373443 -1.779038
v -0.747133 1.205630 -1.780195
v -0.579317 1.001150 -1.781604
v -0.454617 0.767860 -1.783212
v -0.377828 0.514727 -1.784957
v -0.351901 0.251476 -1.786771
v -0.377828 -0.011774 -1.788585
v -0.454617 -0.264908 -1.790330
v -0.579317 -0.498197 -1.791938
v -0.747133 -0.702677 -1.793347
v -0.951617 -0.870490 -1.794504
v -1.184914 -0.995185 -1.795363
v -1.438052 -1.071973 -1.795892
v -1.701310 -1.097901 -1.796071
v -1.964566 -1.071972 -1.795892
v -2.217706 -0.995185 -1.795363
v -2.451001 -0.870489 -1.794504
v -2.655485 -0.702677 -1.793347
v -2.823301 -0.498197 -1.791938
v -2.948000 -0.264907 -1.790330
v -3.024790 -0.011773 -1.788585
v -3.050718 0.251477 -1.786771
v -3.024788 0.514728 -1.784956
v -2.948000 0.767862 -1.783212
v -2.823300 1.001151 -1.781604
v -2.655484 1.205631 -1.780195
v -2.761058 1.311205 -1.779467
v -2.761058 1.310207 -1.513823
v -2.467444 1.397057 -1.513224
v -0.726202 1.225562 -1.514406
v -2.676415 1.225564 -1.514406
v -2.847913 1.016598 -1.515846
v -2.975348 0.778191 -1.517489
v -3.053822 0.519505 -1.519272
v -3.080318 0.250479 -1.521126
v -3.053822 -0.018546 -1.522981
v -2.975348 -0.277233 -1.524763
v -2.847913 -0.515640 -1.526407
v -2.676416 -0.724606 -1.527847
v -2.467447 -0.896100 -1.529029
v -2.229034 -1.023531 -1.529907
v -1.970340 -1.102003 -1.530448
v -1.701310 -1.128500 -1.530631
v -1.432277 -1.102003 -1.530448
v -1.173584 -1.023531 -1.529907
v -0.935171 -0.896100 -1.529029
v -0.726202 -0.724606 -1.527847
v -0.554702 -0.515641 -1.526407
v -0.427268 -0.277234 -1.524764
v -0.348796 -0.018547 -1.522981
v -0.322299 0.250478 -1.521127
v -0.348796 0.519503 -1.519273
v -0.427268 0.778190 -1.517490
v -0.554702 1.016597 -1.515846
v -0.455171 1.083100 -1.515388
v -0.455171 1.084098 -1.781032
v -0.316676 0.824996 -1.782818
v -0.231390 0.543854 -1.784756
v -0.202592 0.251476 -1.786771
v -0.231390 -0.040902 -1.788786
v -0.316676 -0.322044 -1.790724
v -0.455171 -0.581146 -1.792510
v -0.641557 -0.808251 -1.794075
v -0.868667 -0.994631 -1.795360
v -1.127775 -1.133124 -1.796314
v -1.408924 -1.218408 -1.796901
v -1.701310 -1.247205 -1.797100
v -1.993695 -1.218408 -1.796901
v -2.274843 -1.133124 -1.796314
v -2.533950 -0.994631 -1.795360
v -2.761061 -0.808250 -1.794075
v -2.947447 -0.581145 -1.792510
v -3.085943 -0.322043 -1.790724
v -3.171227 -0.040901 -1.788786
v -3.200025 0.251478 -1.786771
v -3.171227 0.543856 -1.784755
v -3.085942 0.824998 -1.782817
v -2.947444 1.084100 -1.781032
v -2.947444 1.083102 -1.515388
v -3.085942 0.824000 -1.517174
v -3.171227 0.542858 -1.519111
v -3.200025 0.250479 -1.521126
v -3.171227 -0.041899 -1.523142
v -3.085943 -0.323041 -1.525079
v -2.947447 -0.582143 -1.526865
v -2.761061 -0.809248 -1.528430
v -2.533950 -0.995629 -1.529715
v -2.274843 -1.134122 -1.530670
v -1.993695 -1.219406 -1.531257
v -1.701310 -1.248203 -1.531456
v -1.408924 -1.219406 -1.531257
v -1.127775 -1.134122 -1.530670
v -0.868667 -0.995630 -1.529715
v -0.641557 -0.809249 -1.528430
v -0.455171 -0.582144 -1.526865
v -0.316676 -0.323042 -1.525079
v -0.231390 -0.041900 -1.523142
v -0.202592 0.250478 -1.521127
v -0.231390 0.542856 -1.519111
v -0.316676 0.823998 -1.517174
vn 0.0980 0.9952 0.0037
vn -0.0000 0.0069 -1.0000
vn -0.0980 0.9952 0.0037
vn 0.0000 -0.0069 1.0000
vn 0.2903 0.9569 0.0036
vn -0.0980 -0.9952 -0.0069
vn -0.2903 0.9569 0.0036
vn -0.0980 -0.9952 -0.0063
vn 0.4714 0.8819 0.0033
vn 0.0980 -0.9952 -0.0069
vn -0.2903 -0.9569 -0.0066
vn -0.4714 0.8819 0.0033
vn 0.0980 -0.9952 -0.0063
vn -0.2903 -0.9569 -0.0061
vn 0.6344 0.7730 0.0029
vn 0.2903 -0.9569 -0.0066
vn -0.4714 -0.8819 -0.0061
vn -0.6344 -0.7730 -0.0053
vn -0.7730 -0.6344 -0.0044
vn -0.8819 -0.4714 -0.0032
vn -0.9569 -0.2903 -0.0020
vn -0.9952 -0.0980 -0.0007
vn -0.9952 0.0980 0.0007
vn -0.9569 0.2903 0.0020
vn -0.8819 0.4714 0.0032
vn -0.7730 0.6344 0.0044
vn -0.6344 0.7730 0.0053
vn -0.4714 0.8819 0.0061
vn -0.2903 0.9569 0.0066
vn -0.0980 0.9952 0.0069
vn 0.0980 0.9952 0.0069
vn 0.2903 0.9569 0.0066
vn 0.4714 0.8819 0.0061
vn 0.6344 0.7730 0.0053
vn 0.7730 0.6344 0.0044
vn 0.8819 0.4714 0.0032
vn 0.9569 0.2903 0.0020
vn 0.9952 0.0980 0.0007
vn 0.9952 -0.0980 -0.0007
vn 0.9569 -0.2903 -0.0020
vn 0.8819 -0.4714 -0.0032
vn 0.7730 -0.6344 -0.0044
vn 0.6344 -0.7730 -0.0053
vn 0.4714 -0.8819 -0.0061
vn -0.6344 0.7730 0.0029
vn 0.2903 -0.9569 -0.0061
vn -0.4714 -0.8819 -0.0056
vn 0.4714 -0.8819 -0.0056
vn 0.6344 -0.7730 -0.0049
vn 0.7730 -0.6344 -0.0040
vn 0.8819 -0.4714 -0.0030
vn 0.9569 -0.2903 -0.0018
vn 0.9952 -0.0980 -0.0006
vn 0.9952 0.0980 0.0006
vn 0.9569 0.2903 0.0018
vn 0.8819 0.4714 0.0030
vn 0.7730 0.6344 0.0040
vn 0.6344 0.7730 0.0049
vn 0.4714 0.8819 0.0056
vn 0.2903 0.9569 0.0061
vn 0.0980 0.9952 0.0063
vn -0.0980 0.9952 0.0063
vn -0.2903 0.9569 0.0061
vn -0.4714 0.8819 0.0056
vn -0.6344 0.7730 0.0049
vn -0.7730 0.6344 0.0040
vn -0.8819 0.4714 0.0030
vn -0.9569 0.2903 0.0018
vn -0.9952 0.0980 0.0006
vn -0.9952 -0.0980 -0.0006
vn -0.9569 -0.2903 -0.0018
vn -0.8819 -0.4714 -0.0030
vn -0.7730 -0.6344 -0.0040
vn -0.6344 -0.7730 -0.0049
vn 0.7730 0.6344 0.0024
vn -0.7730 0.6344 0.0024
vn 0.8819 0.4714 0.0018
vn 0.9569 0.2903 0.0011
vn 0.9952 0.0980 0.0004
vn 0.9952 -0.0980 -0.0004
vn 0.9569 -0.2903 -0.0011
vn 0.8819 -0.4714 -0.0018
vn 0.7730 -0.6344 -0.0024
vn 0.6344 -0.7730 -0.0029
vn 0.4714 -0.8819 -0.0033
vn 0.2903 -0.9569 -0.0036
vn 0.0980 -0.9952 -0.0037
vn -0.0980 -0.9952 -0.0037
vn -0.2903 -0.9569 -0.0036
vn -0.4714 -0.8819 -0.0033
vn -0.6344 -0.7730 -0.0029
vn -0.7730 -0.6344 -0.0024
vn -0.8819 -0.4714 -0.0018
vn -0.9569 -0.2903 -0.0011
vn -0.9952 -0.0980 -0.0004
vn -0.9952 0.0980 0.0004
vn -0.9569 0.2903 0.0011
vn -0.8819 0.4714 0.0018
vn 0.0147 0.9617 -0.2737
vn -0.9990 0.0131 -0.0436
vn 0.9991 -0.0208 -0.0364
vn -0.0151 -0.9999 -0.0083
usemtl Material.002
s off
f 1//1 2//1 3//1 4//1
f 1//2 4//2 5//2 6//2
f 7//3 8//3 2//3 1//3
f 3//4 2//4 9//4 10//4
f 4//5 3//5 11//5 12//5
f 7//2 1//2 6//2 13//2
f 4//2 12//2 14//2 5//2
f 6//6 5//6 15//6 16//6
f 17//7 18//7 8//7 7//7
f 2//4 8//4 19//4 9//4
f 11//4 3//4 10//4 20//4
f 10//8 9//8 21//8 22//8
f 12//9 11//9 23//9 24//9
f 17//2 7//2 13//2 25//2
f 13//10 6//10 16//10 26//10
f 12//2 24//2 27//2 14//2
f 5//11 14//11 28//11 15//11
f 29//2 30//2 31//2 32//2 33//2 34//2 35//2 36//2 37//2 38//2 39//2 40//2 41//2 42//2 43//2 44//2 45//2 46//2 26//2 16//2 15//2 47//2 48//2
f 30//2 47//2 15//2 28//2 49//2 50//2 51//2 52//2 53//2 54//2 55//2 56//2 57//2 58//2 59//2 60//2 31//2
f 61//12 62//12 18//12 17//12
f 8//4 18//4 63//4 19//4
f 9//13 19//13 64//13 21//13
f 23//4 11//4 20//4 65//4
f 20//14 10//14 22//14 66//14
f 67//4 68//4 69//4 70//4 71//4 72//4 73//4 74//4 75//4 76//4 77//4 78//4 79//4 80//4 66//4 22//4 21//4 64//4 81//4
f 82//4 83//4 81//4 64//4 84//4 85//4 86//4 87//4 88//4 89//4 90//4 91//4 92//4 93//4 94//4 95//4 96//4 97//4 98//4 68//4 67//4
f 24//15 23//15 99//15 100//15
f 61//2 17//2 25//2 101//2
f 25//16 13//16 26//16 46//16
f 24//2 100//2 102//2 27//2
f 14//17 27//17 49//17 28//17
f 27//18 102//18 50//18 49//18
f 102//19 103//19 51//19 50//19
f 103//20 104//20 52//20 51//20
f 104//21 105//21 53//21 52//21
f 105//22 106//22 54//22 53//22
f 106//23 107//23 55//23 54//23
f 107//24 108//24 56//24 55//24
f 108//25 109//25 57//25 56//25
f 109//26 110//26 58//26 57//26
f 110//27 111//27 59//27 58//27
f 111//28 112//28 60//28 59//28
f 112//29 113//29 31//29 60//29
f 113//30 114//30 32//30 31//30
f 114//31 115//31 33//31 32//31
f 115//32 116//32 34//32 33//32
f 116//33 117//33 35//33 34//33
f 117//34 118//34 36//34 35//34
f 118//35 119//35 37//35 36//35
f 119//36 120//36 38//36 37//36
f 120//37 121//37 39//37 38//37
f 121//38 122//38 40//38 39//38
f 122//39 123//39 41//39 40//39
f 123//40 124//40 42//40 41//40
f 124//41 125//41 43//41 42//41
f 125//42 126//42 44//42 43//42
f 126//43 101//43 45//43 44//43
f 101//44 25//44 46//44 45//44
f 127//45 128//45 62//45 61//45
f 18//4 62//4 129//4 63//4
f 19//46 63//46 84//46 64//46
f 99//4 23//4 65//4 130//4
f 65//47 20//47 66//47 80//47
f 63//48 129//48 85//48 84//48
f 129//49 131//49 86//49 85//49
f 131//50 132//50 87//50 86//50
f 132//51 133//51 88//51 87//51
f 133//52 134//52 89//52 88//52
f 134//53 135//53 90//53 89//53
f 135//54 136//54 91//54 90//54
f 136//55 137//55 92//55 91//55
f 137//56 138//56 93//56 92//56
f 138//57 139//57 94//57 93//57
f 139//58 140//58 95//58 94//58
f 140//59 141//59 96//59 95//59
f 141//60 142//60 97//60 96//60
f 142//61 143//61 98//61 97//61
f 143//62 144//62 68//62 98//62
f 144//63 145//63 69//63 68//63
f 145//64 146//64 70//64 69//64
f 146//65 147//65 71//65 70//65
f 147//66 148//66 72//66 71//66
f 148//67 149//67 73//67 72//67
f 149//68 150//68 74//68 73//68
f 150//69 151//69 75//69 74//69
f 151//70 152//70 76//70 75//70
f 152//71 153//71 77//71 76//71
f 153//72 154//72 78//72 77//72
f 154//73 130//73 79//73 78//73
f 130//74 65//74 80//74 79//74
f 100//75 99//75 155//75 156//75
f 127//2 61//2 101//2 126//2
f 100//2 156//2 103//2 102//2
f 156//2 157//2 104//2 103//2
f 157//2 158//2 105//2 104//2
f 158//2 159//2 106//2 105//2
f 159//2 160//2 107//2 106//2
f 160//2 161//2 108//2 107//2
f 161//2 162//2 109//2 108//2
f 162//2 163//2 110//2 109//2
f 163//2 164//2 111//2 110//2
f 164//2 165//2 112//2 111//2
f 165//2 166//2 113//2 112//2
f 166//2 167//2 114//2 113//2
f 167//2 168//2 115//2 114//2
f 168//2 169//2 116//2 115//2
f 169//2 170//2 117//2 116//2
f 170//2 171//2 118//2 117//2
f 171//2 172//2 119//2 118//2
f 172//2 173//2 120//2 119//2
f 173//2 174//2 121//2 120//2
f 174//2 175//2 122//2 121//2
f 175//2 176//2 123//2 122//2
f 176//2 177//2 124//2 123//2
f 177//2 178//2 125//2 124//2
f 178//2 127//2 126//2 125//2
f 178//76 179//76 128//76 127//76
f 62//4 128//4 131//4 129//4
f 155//4 99//4 130//4 154//4
f 128//4 179//4 132//4 131//4
f 179//4 180//4 133//4 132//4
f 180//4 181//4 134//4 133//4
f 181//4 182//4 135//4 134//4
f 182//4 183//4 136//4 135//4
f 183//4 184//4 137//4 136//4
f 184//4 185//4 138//4 137//4
f 185//4 186//4 139//4 138//4
f 186//4 187//4 140//4 139//4
f 187//4 188//4 141//4 140//4
f 188//4 189//4 142//4 141//4
f 189//4 190//4 143//4 142//4
f 190//4 191//4 144//4 143//4
f 191//4 192//4 145//4 144//4
f 192//4 193//4 146//4 145//4
f 193//4 194//4 147//4 146//4
f 194//4 195//4 148//4 147//4
f 195//4 196//4 149//4 148//4
f 196//4 197//4 150//4 149//4
f 197//4 198//4 151//4 150//4
f 198//4 199//4 152//4 151//4
f 199//4 200//4 153//4 152//4
f 200//4 155//4 154//4 153//4
f 156//77 155//77 200//77 157//77
f 157//78 200//78 199//78 158//78
f 158//79 199//79 198//79 159//79
f 159//80 198//80 197//80 160//80
f 160//81 197//81 196//81 161//81
f 161//82 196//82 195//82 162//82
f 162//83 195//83 194//83 163//83
f 163//84 194//84 193//84 164//84
f 164//85 193//85 192//85 165//85
f 165//86 192//86 191//86 166//86
f 166//87 191//87 190//87 167//87
f 167//88 190//88 189//88 168//88
f 168//89 189//89 188//89 169//89
f 169//90 188//90 187//90 170//90
f 170//91 187//91 186//91 171//91
f 171//92 186//92 185//92 172//92
f 172//93 185//93 184//93 173//93
f 173//94 184//94 183//94 174//94
f 174//95 183//95 182//95 175//95
f 175//96 182//96 181//96 176//96
f 176//97 181//97 180//97 177//97
f 177//98 180//98 179//98 178//98
f 30//99 29//99 82//99 67//99
f 47//100 30//100 67//100 81//100
f 29//101 48//101 83//101 82//101
f 48//102 47//102 81//102 83//102
